# xmcd CD database file
#
# Track frame offsets:
#	150
#	19628
#	42997
#	57501
#	79621
#	90900
#	113603
#	134009
#	160652
#	179290
#	207177
#	227162
#
# Disc length: 3262 seconds
#
# Revision: 0
# Processed by: cddbd v1.5.2PL0 Copyright (c) Steve Scherf et al.
# Submitted via: CDex 1.70beta2
#
DISCID=910cbc0c
DTITLE=Old Timers - Swing That Music
DYEAR=2006
DGENRE=Jazz
TTITLE0=B.M. Rag
TTITLE1=If I Had You
TTITLE2=March Of The Charcoal Grays
TTITLE3=Lazy River
TTITLE4=Swing That Music
TTITLE5=Mood Indigo
TTITLE6=Heebie Jeebies
TTITLE7=Melancholy Blues
TTITLE8=Jeepers Greepers
TTITLE9=When It's Sleepy Time Down South
TTITLE10=Rosetta
TTITLE11=Milenberg Joys
EXTD=YEAR: 2006
EXTT0=
EXTT1=
EXTT2=
EXTT3=
EXTT4=
EXTT5=
EXTT6=
EXTT7=
EXTT8=
EXTT9=
EXTT10=
EXTT11=
PLAYORDER=
